M48
; DRILL file {KiCad 5.1.6-c6e7f7d~86~ubuntu16.04.1} date Fri Jun 26 14:01:41 2020
; FORMAT={-:-/ absolute / metric / decimal}
; #@! TF.CreationDate,2020-06-26T14:01:41+02:00
; #@! TF.GenerationSoftware,Kicad,Pcbnew,5.1.6-c6e7f7d~86~ubuntu16.04.1
; #@! TF.FileFunction,Plated,1,2,PTH
FMAT,2
METRIC
T1C0.500
T2C0.800
T3C0.840
T4C1.000
T5C1.200
T6C1.300
T7C1.400
T8C1.600
T9C2.700
%
G90
G05
T1
X52.975Y-145.0
X53.568Y-143.568
X53.568Y-146.432
X55.0Y-142.975
X55.0Y-147.025
X56.432Y-143.568
X56.432Y-146.432
X57.025Y-145.0
X52.975Y-55.0
X53.568Y-53.568
X53.568Y-56.432
X55.0Y-52.975
X55.0Y-57.025
X56.432Y-53.568
X56.432Y-56.432
X57.025Y-55.0
X202.975Y-55.0
X203.568Y-53.568
X203.568Y-56.432
X205.0Y-52.975
X205.0Y-57.025
X206.432Y-53.568
X206.432Y-56.432
X207.025Y-55.0
X202.975Y-145.0
X203.568Y-143.568
X203.568Y-146.432
X205.0Y-142.975
X205.0Y-147.025
X206.432Y-143.568
X206.432Y-146.432
X207.025Y-145.0
T2
X177.5Y-140.0
X187.66Y-140.0
X138.7Y-95.84
X138.7Y-106.0
X114.0Y-89.38
X114.0Y-97.0
X116.54Y-89.38
X116.54Y-97.0
X119.08Y-89.38
X119.08Y-97.0
X121.62Y-89.38
X121.62Y-97.0
X114.1Y-101.3
X119.1Y-101.3
X177.5Y-130.1
X187.66Y-130.1
X173.2Y-133.8
X173.2Y-136.3
X177.5Y-136.7
X187.66Y-136.7
X177.5Y-133.4
X187.66Y-133.4
X130.3Y-100.5
X130.3Y-103.0
X115.9Y-66.1
X131.14Y-66.1
X187.7Y-79.071
X189.3Y-75.9
X189.3Y-78.4
X190.9Y-75.229
X168.0Y-132.5
X168.0Y-135.04
X168.0Y-137.58
X152.08Y-137.46
X152.08Y-140.0
X159.7Y-137.46
X159.7Y-140.0
X181.9Y-66.7
X192.06Y-66.7
X145.4Y-129.84
X145.4Y-140.0
T3
X146.52Y-84.6
X146.52Y-89.77
X146.52Y-95.87
X146.52Y-100.44
X164.3Y-85.2
X164.3Y-89.26
X164.3Y-96.37
X164.3Y-100.43
T4
X105.9Y-66.1
X110.9Y-66.1
X70.328Y-97.5
X71.0Y-99.5
X76.0Y-99.5
X76.672Y-101.5
X150.79Y-110.55
X160.79Y-110.55
T5
X63.18Y-120.0
X83.5Y-120.0
X78.55Y-59.99
X78.55Y-64.99
X66.0Y-130.0
X81.0Y-130.0
X194.7Y-85.8
X194.7Y-90.8
X68.5Y-75.5
X68.5Y-87.5
X78.5Y-75.5
X78.5Y-87.5
T6
X203.9Y-78.2
X203.9Y-83.2
X95.0Y-122.5
X95.0Y-145.0
T7
X182.38Y-60.0
X190.0Y-60.0
X70.0Y-140.0
X77.62Y-140.0
T8
X174.46Y-100.6
X189.7Y-100.6
X66.0Y-111.5
X71.08Y-111.5
X76.16Y-111.5
X81.24Y-111.5
T9
X55.0Y-145.0
X55.0Y-55.0
X205.0Y-55.0
X205.0Y-145.0
T0
M30
